<?xml version="1.0" encoding="UTF-8"?>
<svg xmlns="http://www.w3.org/2000/svg" width="16" height="16" viewBox="0 0 16 16">
  <path fill="#2e3436" d="M 14.5 1 C 14.41 1 14.32 1.01 14.23 1.03 L 5.23 2.78 C 4.81 2.86 4.5 3.23 4.5 3.66 L 4.5 11.05 C 4.13 10.85 3.7 10.75 3.25 10.75 C 1.73 10.75 0.5 11.76 0.5 13 C 0.5 14.24 1.73 15.25 3.25 15.25 C 4.77 15.25 6 14.24 6 13 L 6 6.41 L 13 5.05 L 13 9.55 C 12.63 9.35 12.2 9.25 11.75 9.25 C 10.23 9.25 9 10.26 9 11.5 C 9 12.74 10.23 13.75 11.75 13.75 C 13.27 13.75 14.5 12.74 14.5 11.5 L 14.5 1.75 C 14.5 1.34 14.16 1 13.75 1 Z"/>
</svg>
